<svg xmlns="http://www.w3.org/2000/svg" xmlns:xlink="http://www.w3.org/1999/xlink" width="1018.671" height="736.959" viewBox="0 0 1018.671 736.959"><defs><style>.a{fill:url(#a);}.b,.c,.d{fill:none;}.b,.d{stroke:#048bba;}.b{stroke-width:3px;stroke-dasharray:40;}.d{stroke-width:5px;}.e{fill:url(#b);}.f{fill:#007697;}.g,.i{fill:#fff;}.h{fill:url(#c);}.j{fill:url(#k);}.k,.l,.m{stroke:none;}.l{fill:#048bba;}.m{fill:#0094bd;}</style><radialGradient id="a" cx="0.524" cy="0.5" r="0.404" gradientTransform="translate(0 0)" gradientUnits="objectBoundingBox"><stop offset="0" stop-color="#fff"/><stop offset="1" stop-color="#fffcfc" stop-opacity="0"/></radialGradient><linearGradient id="b" y1="0.214" x2="0.911" y2="0.412" gradientUnits="objectBoundingBox"><stop offset="0" stop-color="#00bcf0"/><stop offset="1" stop-color="#007697"/></linearGradient><linearGradient id="c" x1="0.479" y1="0.575" x2="0.482" y2="0.943" xlink:href="#b"/><linearGradient id="k" x1="0.459" y1="0.188" x2="0.482" y2="0.943" gradientUnits="objectBoundingBox"><stop offset="0" stop-color="#00b7e9"/><stop offset="1" stop-color="#007697"/></linearGradient></defs><g transform="translate(-130.5 -81.535)"><ellipse class="a" cx="374" cy="75.5" rx="374" ry="75.5" transform="translate(331 515)"/><line class="b" x1="400" y1="489" transform="translate(212.5 82.5)"/><line class="b" x1="411" y1="489" transform="translate(560.5 82.5)"/><g class="c" transform="translate(376.026 402.962)"><path class="k" d="M-13.919,135.974l516.788,7.277L773.145,266.978H147.238Z"/><path class="l" d="M 0.4075927734375 141.1765441894531 L 149.013427734375 261.9781494140625 L 750.2102661132813 261.9781494140625 L 501.7456359863281 148.2359008789063 L 0.4075927734375 141.1765441894531 M -13.918701171875 135.9743347167969 L 502.8692321777344 143.251220703125 L 773.1449584960938 266.9781494140625 L 147.237548828125 266.9781494140625 L -13.918701171875 135.9743347167969 Z"/></g><line class="d" x1="299" transform="translate(130.5 590.5)"/><line class="d" x1="303" transform="translate(156.5 615.5)"/><line class="d" x1="300" transform="translate(190.5 640.5)"/><path class="d" d="M0,0,70.451,140.477" transform="translate(800.5 666.5)"/><path class="d" d="M3611.806,779.908l27.844,40.67,45.685,28.114,29.871,45.685" transform="translate(-2792.556 -112)"/><path class="d" d="M3509.639,778.5l19.534,52.97-7.029,50.957,19.328,45.685" transform="translate(-2730.265 -110.592)"/><g transform="translate(2 54)"><path class="e" d="M0,0H106.209V156.888L0,69.525Z" transform="translate(694.06 421.889)"/><path class="f" d="M240.473,0H0V59.7H237.434Z" transform="translate(800.269 519.08)"/><path class="g" d="M240.473,0H0V3.09L240.473,3.4Z" transform="translate(800.269 519.08)"/><path class="g" d="M0,0H106.209V101.45L0,4.581Z" transform="translate(694.06 421.026)"/><path class="h" d="M-106.456,143.251H133.7l106.525,96.867H.069Z" transform="translate(800.515 278.962)"/><g transform="translate(815.331 532.371)"><g class="i" transform="translate(0 0)"><path class="k" d="M 7.069178104400635 6.536016941070557 L 0.2500161826610565 6.536016941070557 L 0.2500161826610565 0.2499970346689224 L 7.155919075012207 0.2499970346689224 L 7.069178104400635 6.536016941070557 Z"/><path class="m" d="M 0.5000162124633789 0.4999971389770508 L 0.5000162124633789 6.286016941070557 L 6.822610378265381 6.286016941070557 L 6.902451515197754 0.4999971389770508 L 0.5000162124633789 0.4999971389770508 M 1.621246337890625e-05 -2.86102294921875e-06 L 7.409396171569824 -2.86102294921875e-06 L 7.315756320953369 6.786016941070557 L 1.621246337890625e-05 6.786016941070557 L 1.621246337890625e-05 -2.86102294921875e-06 Z"/></g><g class="i" transform="translate(9.747 0)"><path class="k" d="M 7.069178104400635 6.536016941070557 L 0.2500161826610565 6.536016941070557 L 0.2500161826610565 0.2499970346689224 L 7.155919075012207 0.2499970346689224 L 7.069178104400635 6.536016941070557 Z"/><path class="m" d="M 0.5000162124633789 0.4999971389770508 L 0.5000162124633789 6.286016941070557 L 6.822610378265381 6.286016941070557 L 6.902451515197754 0.4999971389770508 L 0.5000162124633789 0.4999971389770508 M 1.621246337890625e-05 -2.86102294921875e-06 L 7.409396171569824 -2.86102294921875e-06 L 7.315756320953369 6.786016941070557 L 1.621246337890625e-05 6.786016941070557 L 1.621246337890625e-05 -2.86102294921875e-06 Z"/></g><g class="i" transform="translate(19.493 0)"><path class="k" d="M 7.069178104400635 6.536016941070557 L 0.2500161826610565 6.536016941070557 L 0.2500161826610565 0.2499970346689224 L 7.155919075012207 0.2499970346689224 L 7.069178104400635 6.536016941070557 Z"/><path class="m" d="M 0.5000162124633789 0.4999971389770508 L 0.5000162124633789 6.286016941070557 L 6.822610378265381 6.286016941070557 L 6.902451515197754 0.4999971389770508 L 0.5000162124633789 0.4999971389770508 M 1.621246337890625e-05 -2.86102294921875e-06 L 7.409396171569824 -2.86102294921875e-06 L 7.315756320953369 6.786016941070557 L 1.621246337890625e-05 6.786016941070557 L 1.621246337890625e-05 -2.86102294921875e-06 Z"/></g><g class="i" transform="translate(29.24 0)"><path class="k" d="M 7.069178104400635 6.536016941070557 L 0.2500161826610565 6.536016941070557 L 0.2500161826610565 0.2499970346689224 L 7.155919075012207 0.2499970346689224 L 7.069178104400635 6.536016941070557 Z"/><path class="m" d="M 0.5000162124633789 0.4999971389770508 L 0.5000162124633789 6.286016941070557 L 6.822610378265381 6.286016941070557 L 6.902451515197754 0.4999971389770508 L 0.5000162124633789 0.4999971389770508 M 1.621246337890625e-05 -2.86102294921875e-06 L 7.409396171569824 -2.86102294921875e-06 L 7.315756320953369 6.786016941070557 L 1.621246337890625e-05 6.786016941070557 L 1.621246337890625e-05 -2.86102294921875e-06 Z"/></g><g class="i" transform="translate(38.986 0)"><path class="k" d="M 7.069178104400635 6.536016941070557 L 0.2500161826610565 6.536016941070557 L 0.2500161826610565 0.2499970346689224 L 7.155919075012207 0.2499970346689224 L 7.069178104400635 6.536016941070557 Z"/><path class="m" d="M 0.5000162124633789 0.4999971389770508 L 0.5000162124633789 6.286016941070557 L 6.822610378265381 6.286016941070557 L 6.902451515197754 0.4999971389770508 L 0.5000162124633789 0.4999971389770508 M 1.621246337890625e-05 -2.86102294921875e-06 L 7.409396171569824 -2.86102294921875e-06 L 7.315756320953369 6.786016941070557 L 1.621246337890625e-05 6.786016941070557 L 1.621246337890625e-05 -2.86102294921875e-06 Z"/></g><g class="i" transform="translate(48.733 0)"><path class="k" d="M 7.069178104400635 6.536016941070557 L 0.2500161826610565 6.536016941070557 L 0.2500161826610565 0.2499970346689224 L 7.155919075012207 0.2499970346689224 L 7.069178104400635 6.536016941070557 Z"/><path class="m" d="M 0.5000162124633789 0.4999971389770508 L 0.5000162124633789 6.286016941070557 L 6.822610378265381 6.286016941070557 L 6.902451515197754 0.4999971389770508 L 0.5000162124633789 0.4999971389770508 M 1.621246337890625e-05 -2.86102294921875e-06 L 7.409396171569824 -2.86102294921875e-06 L 7.315756320953369 6.786016941070557 L 1.621246337890625e-05 6.786016941070557 L 1.621246337890625e-05 -2.86102294921875e-06 Z"/></g><g class="i" transform="translate(9.747 8.86)"><path class="k" d="M 7.069178104400635 6.536016941070557 L 0.2500161826610565 6.536016941070557 L 0.2500161826610565 0.2499970346689224 L 7.155919075012207 0.2499970346689224 L 7.069178104400635 6.536016941070557 Z"/><path class="m" d="M 0.5000162124633789 0.4999971389770508 L 0.5000162124633789 6.286016941070557 L 6.822610378265381 6.286016941070557 L 6.902451515197754 0.4999971389770508 L 0.5000162124633789 0.4999971389770508 M 1.621246337890625e-05 -2.86102294921875e-06 L 7.409396171569824 -2.86102294921875e-06 L 7.315756320953369 6.786016941070557 L 1.621246337890625e-05 6.786016941070557 L 1.621246337890625e-05 -2.86102294921875e-06 Z"/></g><g class="i" transform="translate(19.493 8.86)"><path class="k" d="M 7.069178104400635 6.536016941070557 L 0.2500161826610565 6.536016941070557 L 0.2500161826610565 0.2499970346689224 L 7.155919075012207 0.2499970346689224 L 7.069178104400635 6.536016941070557 Z"/><path class="m" d="M 0.5000162124633789 0.4999971389770508 L 0.5000162124633789 6.286016941070557 L 6.822610378265381 6.286016941070557 L 6.902451515197754 0.4999971389770508 L 0.5000162124633789 0.4999971389770508 M 1.621246337890625e-05 -2.86102294921875e-06 L 7.409396171569824 -2.86102294921875e-06 L 7.315756320953369 6.786016941070557 L 1.621246337890625e-05 6.786016941070557 L 1.621246337890625e-05 -2.86102294921875e-06 Z"/></g><g class="i" transform="translate(29.24 8.86)"><path class="k" d="M 7.069178104400635 6.536016941070557 L 0.2500161826610565 6.536016941070557 L 0.2500161826610565 0.2499970346689224 L 7.155919075012207 0.2499970346689224 L 7.069178104400635 6.536016941070557 Z"/><path class="m" d="M 0.5000162124633789 0.4999971389770508 L 0.5000162124633789 6.286016941070557 L 6.822610378265381 6.286016941070557 L 6.902451515197754 0.4999971389770508 L 0.5000162124633789 0.4999971389770508 M 1.621246337890625e-05 -2.86102294921875e-06 L 7.409396171569824 -2.86102294921875e-06 L 7.315756320953369 6.786016941070557 L 1.621246337890625e-05 6.786016941070557 L 1.621246337890625e-05 -2.86102294921875e-06 Z"/></g><g class="i" transform="translate(38.986 8.86)"><path class="k" d="M 7.069178104400635 6.536016941070557 L 0.2500161826610565 6.536016941070557 L 0.2500161826610565 0.2499970346689224 L 7.155919075012207 0.2499970346689224 L 7.069178104400635 6.536016941070557 Z"/><path class="m" d="M 0.5000162124633789 0.4999971389770508 L 0.5000162124633789 6.286016941070557 L 6.822610378265381 6.286016941070557 L 6.902451515197754 0.4999971389770508 L 0.5000162124633789 0.4999971389770508 M 1.621246337890625e-05 -2.86102294921875e-06 L 7.409396171569824 -2.86102294921875e-06 L 7.315756320953369 6.786016941070557 L 1.621246337890625e-05 6.786016941070557 L 1.621246337890625e-05 -2.86102294921875e-06 Z"/></g><g class="i" transform="translate(19.493 17.721)"><path class="k" d="M 7.069178104400635 6.536016941070557 L 0.2500161826610565 6.536016941070557 L 0.2500161826610565 0.2499970346689224 L 7.155919075012207 0.2499970346689224 L 7.069178104400635 6.536016941070557 Z"/><path class="m" d="M 0.5000162124633789 0.4999971389770508 L 0.5000162124633789 6.286016941070557 L 6.822610378265381 6.286016941070557 L 6.902451515197754 0.4999971389770508 L 0.5000162124633789 0.4999971389770508 M 1.621246337890625e-05 -2.86102294921875e-06 L 7.409396171569824 -2.86102294921875e-06 L 7.315756320953369 6.786016941070557 L 1.621246337890625e-05 6.786016941070557 L 1.621246337890625e-05 -2.86102294921875e-06 Z"/></g><g class="i" transform="translate(29.24 17.721)"><path class="k" d="M 7.069178104400635 6.536016941070557 L 0.2500161826610565 6.536016941070557 L 0.2500161826610565 0.2499970346689224 L 7.155919075012207 0.2499970346689224 L 7.069178104400635 6.536016941070557 Z"/><path class="m" d="M 0.5000162124633789 0.4999971389770508 L 0.5000162124633789 6.286016941070557 L 6.822610378265381 6.286016941070557 L 6.902451515197754 0.4999971389770508 L 0.5000162124633789 0.4999971389770508 M 1.621246337890625e-05 -2.86102294921875e-06 L 7.409396171569824 -2.86102294921875e-06 L 7.315756320953369 6.786016941070557 L 1.621246337890625e-05 6.786016941070557 L 1.621246337890625e-05 -2.86102294921875e-06 Z"/></g></g><g class="i" transform="translate(1017.084 532.371)"><path class="k" d="M 7.069178104400635 6.536016941070557 L 0.2500161826610565 6.536016941070557 L 0.2500161826610565 0.2499970346689224 L 7.155919075012207 0.2499970346689224 L 7.069178104400635 6.536016941070557 Z"/><path class="m" d="M 0.5000162124633789 0.4999971389770508 L 0.5000162124633789 6.286016941070557 L 6.822610378265381 6.286016941070557 L 6.902451515197754 0.4999971389770508 L 0.5000162124633789 0.4999971389770508 M 1.621246337890625e-05 -2.86102294921875e-06 L 7.409396171569824 -2.86102294921875e-06 L 7.315756320953369 6.786016941070557 L 1.621246337890625e-05 6.786016941070557 L 1.621246337890625e-05 -2.86102294921875e-06 Z"/></g><g class="i" transform="translate(978.098 532.371)"><path class="k" d="M 7.069178104400635 6.536016941070557 L 0.2500161826610565 6.536016941070557 L 0.2500161826610565 0.2499970346689224 L 7.155919075012207 0.2499970346689224 L 7.069178104400635 6.536016941070557 Z"/><path class="m" d="M 0.5000162124633789 0.4999971389770508 L 0.5000162124633789 6.286016941070557 L 6.822610378265381 6.286016941070557 L 6.902451515197754 0.4999971389770508 L 0.5000162124633789 0.4999971389770508 M 1.621246337890625e-05 -2.86102294921875e-06 L 7.409396171569824 -2.86102294921875e-06 L 7.315756320953369 6.786016941070557 L 1.621246337890625e-05 6.786016941070557 L 1.621246337890625e-05 -2.86102294921875e-06 Z"/></g></g><g transform="translate(2 -42)"><path class="e" d="M0,0H106.209V156.888L0,69.525Z" transform="translate(694.06 421.889)"/><path class="f" d="M240.473,0H0V59.7H237.434Z" transform="translate(800.269 519.08)"/><path class="g" d="M240.473,0H0V3.09L240.473,3.4Z" transform="translate(800.269 519.08)"/><path class="g" d="M0,0H106.209V101.45L0,4.581Z" transform="translate(694.06 421.026)"/><path class="h" d="M-106.456,143.251H133.7l106.525,96.867H.069Z" transform="translate(800.515 278.962)"/><g transform="translate(815.331 532.371)"><g class="i" transform="translate(0 0)"><path class="k" d="M 7.069178104400635 6.536016941070557 L 0.2500161826610565 6.536016941070557 L 0.2500161826610565 0.2499970346689224 L 7.155919075012207 0.2499970346689224 L 7.069178104400635 6.536016941070557 Z"/><path class="m" d="M 0.5000162124633789 0.4999971389770508 L 0.5000162124633789 6.286016941070557 L 6.822610378265381 6.286016941070557 L 6.902451515197754 0.4999971389770508 L 0.5000162124633789 0.4999971389770508 M 1.621246337890625e-05 -2.86102294921875e-06 L 7.409396171569824 -2.86102294921875e-06 L 7.315756320953369 6.786016941070557 L 1.621246337890625e-05 6.786016941070557 L 1.621246337890625e-05 -2.86102294921875e-06 Z"/></g><g class="i" transform="translate(9.747 0)"><path class="k" d="M 7.069178104400635 6.536016941070557 L 0.2500161826610565 6.536016941070557 L 0.2500161826610565 0.2499970346689224 L 7.155919075012207 0.2499970346689224 L 7.069178104400635 6.536016941070557 Z"/><path class="m" d="M 0.5000162124633789 0.4999971389770508 L 0.5000162124633789 6.286016941070557 L 6.822610378265381 6.286016941070557 L 6.902451515197754 0.4999971389770508 L 0.5000162124633789 0.4999971389770508 M 1.621246337890625e-05 -2.86102294921875e-06 L 7.409396171569824 -2.86102294921875e-06 L 7.315756320953369 6.786016941070557 L 1.621246337890625e-05 6.786016941070557 L 1.621246337890625e-05 -2.86102294921875e-06 Z"/></g><g class="i" transform="translate(19.493 0)"><path class="k" d="M 7.069178104400635 6.536016941070557 L 0.2500161826610565 6.536016941070557 L 0.2500161826610565 0.2499970346689224 L 7.155919075012207 0.2499970346689224 L 7.069178104400635 6.536016941070557 Z"/><path class="m" d="M 0.5000162124633789 0.4999971389770508 L 0.5000162124633789 6.286016941070557 L 6.822610378265381 6.286016941070557 L 6.902451515197754 0.4999971389770508 L 0.5000162124633789 0.4999971389770508 M 1.621246337890625e-05 -2.86102294921875e-06 L 7.409396171569824 -2.86102294921875e-06 L 7.315756320953369 6.786016941070557 L 1.621246337890625e-05 6.786016941070557 L 1.621246337890625e-05 -2.86102294921875e-06 Z"/></g><g class="i" transform="translate(29.24 0)"><path class="k" d="M 7.069178104400635 6.536016941070557 L 0.2500161826610565 6.536016941070557 L 0.2500161826610565 0.2499970346689224 L 7.155919075012207 0.2499970346689224 L 7.069178104400635 6.536016941070557 Z"/><path class="m" d="M 0.5000162124633789 0.4999971389770508 L 0.5000162124633789 6.286016941070557 L 6.822610378265381 6.286016941070557 L 6.902451515197754 0.4999971389770508 L 0.5000162124633789 0.4999971389770508 M 1.621246337890625e-05 -2.86102294921875e-06 L 7.409396171569824 -2.86102294921875e-06 L 7.315756320953369 6.786016941070557 L 1.621246337890625e-05 6.786016941070557 L 1.621246337890625e-05 -2.86102294921875e-06 Z"/></g><g class="i" transform="translate(38.986 0)"><path class="k" d="M 7.069178104400635 6.536016941070557 L 0.2500161826610565 6.536016941070557 L 0.2500161826610565 0.2499970346689224 L 7.155919075012207 0.2499970346689224 L 7.069178104400635 6.536016941070557 Z"/><path class="m" d="M 0.5000162124633789 0.4999971389770508 L 0.5000162124633789 6.286016941070557 L 6.822610378265381 6.286016941070557 L 6.902451515197754 0.4999971389770508 L 0.5000162124633789 0.4999971389770508 M 1.621246337890625e-05 -2.86102294921875e-06 L 7.409396171569824 -2.86102294921875e-06 L 7.315756320953369 6.786016941070557 L 1.621246337890625e-05 6.786016941070557 L 1.621246337890625e-05 -2.86102294921875e-06 Z"/></g><g class="i" transform="translate(48.733 0)"><path class="k" d="M 7.069178104400635 6.536016941070557 L 0.2500161826610565 6.536016941070557 L 0.2500161826610565 0.2499970346689224 L 7.155919075012207 0.2499970346689224 L 7.069178104400635 6.536016941070557 Z"/><path class="m" d="M 0.5000162124633789 0.4999971389770508 L 0.5000162124633789 6.286016941070557 L 6.822610378265381 6.286016941070557 L 6.902451515197754 0.4999971389770508 L 0.5000162124633789 0.4999971389770508 M 1.621246337890625e-05 -2.86102294921875e-06 L 7.409396171569824 -2.86102294921875e-06 L 7.315756320953369 6.786016941070557 L 1.621246337890625e-05 6.786016941070557 L 1.621246337890625e-05 -2.86102294921875e-06 Z"/></g><g class="i" transform="translate(9.747 8.86)"><path class="k" d="M 7.069178104400635 6.536016941070557 L 0.2500161826610565 6.536016941070557 L 0.2500161826610565 0.2499970346689224 L 7.155919075012207 0.2499970346689224 L 7.069178104400635 6.536016941070557 Z"/><path class="m" d="M 0.5000162124633789 0.4999971389770508 L 0.5000162124633789 6.286016941070557 L 6.822610378265381 6.286016941070557 L 6.902451515197754 0.4999971389770508 L 0.5000162124633789 0.4999971389770508 M 1.621246337890625e-05 -2.86102294921875e-06 L 7.409396171569824 -2.86102294921875e-06 L 7.315756320953369 6.786016941070557 L 1.621246337890625e-05 6.786016941070557 L 1.621246337890625e-05 -2.86102294921875e-06 Z"/></g><g class="i" transform="translate(19.493 8.86)"><path class="k" d="M 7.069178104400635 6.536016941070557 L 0.2500161826610565 6.536016941070557 L 0.2500161826610565 0.2499970346689224 L 7.155919075012207 0.2499970346689224 L 7.069178104400635 6.536016941070557 Z"/><path class="m" d="M 0.5000162124633789 0.4999971389770508 L 0.5000162124633789 6.286016941070557 L 6.822610378265381 6.286016941070557 L 6.902451515197754 0.4999971389770508 L 0.5000162124633789 0.4999971389770508 M 1.621246337890625e-05 -2.86102294921875e-06 L 7.409396171569824 -2.86102294921875e-06 L 7.315756320953369 6.786016941070557 L 1.621246337890625e-05 6.786016941070557 L 1.621246337890625e-05 -2.86102294921875e-06 Z"/></g><g class="i" transform="translate(29.24 8.86)"><path class="k" d="M 7.069178104400635 6.536016941070557 L 0.2500161826610565 6.536016941070557 L 0.2500161826610565 0.2499970346689224 L 7.155919075012207 0.2499970346689224 L 7.069178104400635 6.536016941070557 Z"/><path class="m" d="M 0.5000162124633789 0.4999971389770508 L 0.5000162124633789 6.286016941070557 L 6.822610378265381 6.286016941070557 L 6.902451515197754 0.4999971389770508 L 0.5000162124633789 0.4999971389770508 M 1.621246337890625e-05 -2.86102294921875e-06 L 7.409396171569824 -2.86102294921875e-06 L 7.315756320953369 6.786016941070557 L 1.621246337890625e-05 6.786016941070557 L 1.621246337890625e-05 -2.86102294921875e-06 Z"/></g><g class="i" transform="translate(38.986 8.86)"><path class="k" d="M 7.069178104400635 6.536016941070557 L 0.2500161826610565 6.536016941070557 L 0.2500161826610565 0.2499970346689224 L 7.155919075012207 0.2499970346689224 L 7.069178104400635 6.536016941070557 Z"/><path class="m" d="M 0.5000162124633789 0.4999971389770508 L 0.5000162124633789 6.286016941070557 L 6.822610378265381 6.286016941070557 L 6.902451515197754 0.4999971389770508 L 0.5000162124633789 0.4999971389770508 M 1.621246337890625e-05 -2.86102294921875e-06 L 7.409396171569824 -2.86102294921875e-06 L 7.315756320953369 6.786016941070557 L 1.621246337890625e-05 6.786016941070557 L 1.621246337890625e-05 -2.86102294921875e-06 Z"/></g><g class="i" transform="translate(19.493 17.721)"><path class="k" d="M 7.069178104400635 6.536016941070557 L 0.2500161826610565 6.536016941070557 L 0.2500161826610565 0.2499970346689224 L 7.155919075012207 0.2499970346689224 L 7.069178104400635 6.536016941070557 Z"/><path class="m" d="M 0.5000162124633789 0.4999971389770508 L 0.5000162124633789 6.286016941070557 L 6.822610378265381 6.286016941070557 L 6.902451515197754 0.4999971389770508 L 0.5000162124633789 0.4999971389770508 M 1.621246337890625e-05 -2.86102294921875e-06 L 7.409396171569824 -2.86102294921875e-06 L 7.315756320953369 6.786016941070557 L 1.621246337890625e-05 6.786016941070557 L 1.621246337890625e-05 -2.86102294921875e-06 Z"/></g><g class="i" transform="translate(29.24 17.721)"><path class="k" d="M 7.069178104400635 6.536016941070557 L 0.2500161826610565 6.536016941070557 L 0.2500161826610565 0.2499970346689224 L 7.155919075012207 0.2499970346689224 L 7.069178104400635 6.536016941070557 Z"/><path class="m" d="M 0.5000162124633789 0.4999971389770508 L 0.5000162124633789 6.286016941070557 L 6.822610378265381 6.286016941070557 L 6.902451515197754 0.4999971389770508 L 0.5000162124633789 0.4999971389770508 M 1.621246337890625e-05 -2.86102294921875e-06 L 7.409396171569824 -2.86102294921875e-06 L 7.315756320953369 6.786016941070557 L 1.621246337890625e-05 6.786016941070557 L 1.621246337890625e-05 -2.86102294921875e-06 Z"/></g></g><g class="i" transform="translate(1017.084 532.371)"><path class="k" d="M 7.069178104400635 6.536016941070557 L 0.2500161826610565 6.536016941070557 L 0.2500161826610565 0.2499970346689224 L 7.155919075012207 0.2499970346689224 L 7.069178104400635 6.536016941070557 Z"/><path class="m" d="M 0.5000162124633789 0.4999971389770508 L 0.5000162124633789 6.286016941070557 L 6.822610378265381 6.286016941070557 L 6.902451515197754 0.4999971389770508 L 0.5000162124633789 0.4999971389770508 M 1.621246337890625e-05 -2.86102294921875e-06 L 7.409396171569824 -2.86102294921875e-06 L 7.315756320953369 6.786016941070557 L 1.621246337890625e-05 6.786016941070557 L 1.621246337890625e-05 -2.86102294921875e-06 Z"/></g><g class="i" transform="translate(978.098 532.371)"><path class="k" d="M 7.069178104400635 6.536016941070557 L 0.2500161826610565 6.536016941070557 L 0.2500161826610565 0.2499970346689224 L 7.155919075012207 0.2499970346689224 L 7.069178104400635 6.536016941070557 Z"/><path class="m" d="M 0.5000162124633789 0.4999971389770508 L 0.5000162124633789 6.286016941070557 L 6.822610378265381 6.286016941070557 L 6.902451515197754 0.4999971389770508 L 0.5000162124633789 0.4999971389770508 M 1.621246337890625e-05 -2.86102294921875e-06 L 7.409396171569824 -2.86102294921875e-06 L 7.315756320953369 6.786016941070557 L 1.621246337890625e-05 6.786016941070557 L 1.621246337890625e-05 -2.86102294921875e-06 Z"/></g></g><g transform="translate(-277 54)"><path class="e" d="M0,0H106.209V156.888L0,69.525Z" transform="translate(694.06 421.889)"/><path class="f" d="M240.473,0H0V59.7H237.434Z" transform="translate(800.269 519.08)"/><path class="g" d="M240.473,0H0V3.09L240.473,3.4Z" transform="translate(800.269 519.08)"/><path class="g" d="M0,0H106.209V101.45L0,4.581Z" transform="translate(694.06 421.026)"/><path class="h" d="M-106.456,143.251H133.7l106.525,98.055H.069Z" transform="translate(800.515 277.774)"/><g transform="translate(815.331 532.371)"><g class="i" transform="translate(0 0)"><path class="k" d="M 7.069178104400635 6.536016941070557 L 0.2500161826610565 6.536016941070557 L 0.2500161826610565 0.2499970346689224 L 7.155919075012207 0.2499970346689224 L 7.069178104400635 6.536016941070557 Z"/><path class="m" d="M 0.5000162124633789 0.4999971389770508 L 0.5000162124633789 6.286016941070557 L 6.822610378265381 6.286016941070557 L 6.902451515197754 0.4999971389770508 L 0.5000162124633789 0.4999971389770508 M 1.621246337890625e-05 -2.86102294921875e-06 L 7.409396171569824 -2.86102294921875e-06 L 7.315756320953369 6.786016941070557 L 1.621246337890625e-05 6.786016941070557 L 1.621246337890625e-05 -2.86102294921875e-06 Z"/></g><g class="i" transform="translate(9.747 0)"><path class="k" d="M 7.069178104400635 6.536016941070557 L 0.2500161826610565 6.536016941070557 L 0.2500161826610565 0.2499970346689224 L 7.155919075012207 0.2499970346689224 L 7.069178104400635 6.536016941070557 Z"/><path class="m" d="M 0.5000162124633789 0.4999971389770508 L 0.5000162124633789 6.286016941070557 L 6.822610378265381 6.286016941070557 L 6.902451515197754 0.4999971389770508 L 0.5000162124633789 0.4999971389770508 M 1.621246337890625e-05 -2.86102294921875e-06 L 7.409396171569824 -2.86102294921875e-06 L 7.315756320953369 6.786016941070557 L 1.621246337890625e-05 6.786016941070557 L 1.621246337890625e-05 -2.86102294921875e-06 Z"/></g><g class="i" transform="translate(19.493 0)"><path class="k" d="M 7.069178104400635 6.536016941070557 L 0.2500161826610565 6.536016941070557 L 0.2500161826610565 0.2499970346689224 L 7.155919075012207 0.2499970346689224 L 7.069178104400635 6.536016941070557 Z"/><path class="m" d="M 0.5000162124633789 0.4999971389770508 L 0.5000162124633789 6.286016941070557 L 6.822610378265381 6.286016941070557 L 6.902451515197754 0.4999971389770508 L 0.5000162124633789 0.4999971389770508 M 1.621246337890625e-05 -2.86102294921875e-06 L 7.409396171569824 -2.86102294921875e-06 L 7.315756320953369 6.786016941070557 L 1.621246337890625e-05 6.786016941070557 L 1.621246337890625e-05 -2.86102294921875e-06 Z"/></g><g class="i" transform="translate(29.24 0)"><path class="k" d="M 7.069178104400635 6.536016941070557 L 0.2500161826610565 6.536016941070557 L 0.2500161826610565 0.2499970346689224 L 7.155919075012207 0.2499970346689224 L 7.069178104400635 6.536016941070557 Z"/><path class="m" d="M 0.5000162124633789 0.4999971389770508 L 0.5000162124633789 6.286016941070557 L 6.822610378265381 6.286016941070557 L 6.902451515197754 0.4999971389770508 L 0.5000162124633789 0.4999971389770508 M 1.621246337890625e-05 -2.86102294921875e-06 L 7.409396171569824 -2.86102294921875e-06 L 7.315756320953369 6.786016941070557 L 1.621246337890625e-05 6.786016941070557 L 1.621246337890625e-05 -2.86102294921875e-06 Z"/></g><g class="i" transform="translate(38.986 0)"><path class="k" d="M 7.069178104400635 6.536016941070557 L 0.2500161826610565 6.536016941070557 L 0.2500161826610565 0.2499970346689224 L 7.155919075012207 0.2499970346689224 L 7.069178104400635 6.536016941070557 Z"/><path class="m" d="M 0.5000162124633789 0.4999971389770508 L 0.5000162124633789 6.286016941070557 L 6.822610378265381 6.286016941070557 L 6.902451515197754 0.4999971389770508 L 0.5000162124633789 0.4999971389770508 M 1.621246337890625e-05 -2.86102294921875e-06 L 7.409396171569824 -2.86102294921875e-06 L 7.315756320953369 6.786016941070557 L 1.621246337890625e-05 6.786016941070557 L 1.621246337890625e-05 -2.86102294921875e-06 Z"/></g><g class="i" transform="translate(48.733 0)"><path class="k" d="M 7.069178104400635 6.536016941070557 L 0.2500161826610565 6.536016941070557 L 0.2500161826610565 0.2499970346689224 L 7.155919075012207 0.2499970346689224 L 7.069178104400635 6.536016941070557 Z"/><path class="m" d="M 0.5000162124633789 0.4999971389770508 L 0.5000162124633789 6.286016941070557 L 6.822610378265381 6.286016941070557 L 6.902451515197754 0.4999971389770508 L 0.5000162124633789 0.4999971389770508 M 1.621246337890625e-05 -2.86102294921875e-06 L 7.409396171569824 -2.86102294921875e-06 L 7.315756320953369 6.786016941070557 L 1.621246337890625e-05 6.786016941070557 L 1.621246337890625e-05 -2.86102294921875e-06 Z"/></g><g class="i" transform="translate(9.747 8.86)"><path class="k" d="M 7.069178104400635 6.536016941070557 L 0.2500161826610565 6.536016941070557 L 0.2500161826610565 0.2499970346689224 L 7.155919075012207 0.2499970346689224 L 7.069178104400635 6.536016941070557 Z"/><path class="m" d="M 0.5000162124633789 0.4999971389770508 L 0.5000162124633789 6.286016941070557 L 6.822610378265381 6.286016941070557 L 6.902451515197754 0.4999971389770508 L 0.5000162124633789 0.4999971389770508 M 1.621246337890625e-05 -2.86102294921875e-06 L 7.409396171569824 -2.86102294921875e-06 L 7.315756320953369 6.786016941070557 L 1.621246337890625e-05 6.786016941070557 L 1.621246337890625e-05 -2.86102294921875e-06 Z"/></g><g class="i" transform="translate(19.493 8.86)"><path class="k" d="M 7.069178104400635 6.536016941070557 L 0.2500161826610565 6.536016941070557 L 0.2500161826610565 0.2499970346689224 L 7.155919075012207 0.2499970346689224 L 7.069178104400635 6.536016941070557 Z"/><path class="m" d="M 0.5000162124633789 0.4999971389770508 L 0.5000162124633789 6.286016941070557 L 6.822610378265381 6.286016941070557 L 6.902451515197754 0.4999971389770508 L 0.5000162124633789 0.4999971389770508 M 1.621246337890625e-05 -2.86102294921875e-06 L 7.409396171569824 -2.86102294921875e-06 L 7.315756320953369 6.786016941070557 L 1.621246337890625e-05 6.786016941070557 L 1.621246337890625e-05 -2.86102294921875e-06 Z"/></g><g class="i" transform="translate(29.24 8.86)"><path class="k" d="M 7.069178104400635 6.536016941070557 L 0.2500161826610565 6.536016941070557 L 0.2500161826610565 0.2499970346689224 L 7.155919075012207 0.2499970346689224 L 7.069178104400635 6.536016941070557 Z"/><path class="m" d="M 0.5000162124633789 0.4999971389770508 L 0.5000162124633789 6.286016941070557 L 6.822610378265381 6.286016941070557 L 6.902451515197754 0.4999971389770508 L 0.5000162124633789 0.4999971389770508 M 1.621246337890625e-05 -2.86102294921875e-06 L 7.409396171569824 -2.86102294921875e-06 L 7.315756320953369 6.786016941070557 L 1.621246337890625e-05 6.786016941070557 L 1.621246337890625e-05 -2.86102294921875e-06 Z"/></g><g class="i" transform="translate(38.986 8.86)"><path class="k" d="M 7.069178104400635 6.536016941070557 L 0.2500161826610565 6.536016941070557 L 0.2500161826610565 0.2499970346689224 L 7.155919075012207 0.2499970346689224 L 7.069178104400635 6.536016941070557 Z"/><path class="m" d="M 0.5000162124633789 0.4999971389770508 L 0.5000162124633789 6.286016941070557 L 6.822610378265381 6.286016941070557 L 6.902451515197754 0.4999971389770508 L 0.5000162124633789 0.4999971389770508 M 1.621246337890625e-05 -2.86102294921875e-06 L 7.409396171569824 -2.86102294921875e-06 L 7.315756320953369 6.786016941070557 L 1.621246337890625e-05 6.786016941070557 L 1.621246337890625e-05 -2.86102294921875e-06 Z"/></g><g class="i" transform="translate(19.493 17.721)"><path class="k" d="M 7.069178104400635 6.536016941070557 L 0.2500161826610565 6.536016941070557 L 0.2500161826610565 0.2499970346689224 L 7.155919075012207 0.2499970346689224 L 7.069178104400635 6.536016941070557 Z"/><path class="m" d="M 0.5000162124633789 0.4999971389770508 L 0.5000162124633789 6.286016941070557 L 6.822610378265381 6.286016941070557 L 6.902451515197754 0.4999971389770508 L 0.5000162124633789 0.4999971389770508 M 1.621246337890625e-05 -2.86102294921875e-06 L 7.409396171569824 -2.86102294921875e-06 L 7.315756320953369 6.786016941070557 L 1.621246337890625e-05 6.786016941070557 L 1.621246337890625e-05 -2.86102294921875e-06 Z"/></g><g class="i" transform="translate(29.24 17.721)"><path class="k" d="M 7.069178104400635 6.536016941070557 L 0.2500161826610565 6.536016941070557 L 0.2500161826610565 0.2499970346689224 L 7.155919075012207 0.2499970346689224 L 7.069178104400635 6.536016941070557 Z"/><path class="m" d="M 0.5000162124633789 0.4999971389770508 L 0.5000162124633789 6.286016941070557 L 6.822610378265381 6.286016941070557 L 6.902451515197754 0.4999971389770508 L 0.5000162124633789 0.4999971389770508 M 1.621246337890625e-05 -2.86102294921875e-06 L 7.409396171569824 -2.86102294921875e-06 L 7.315756320953369 6.786016941070557 L 1.621246337890625e-05 6.786016941070557 L 1.621246337890625e-05 -2.86102294921875e-06 Z"/></g></g><g class="i" transform="translate(1017.084 532.371)"><path class="k" d="M 7.069178104400635 6.536016941070557 L 0.2500161826610565 6.536016941070557 L 0.2500161826610565 0.2499970346689224 L 7.155919075012207 0.2499970346689224 L 7.069178104400635 6.536016941070557 Z"/><path class="m" d="M 0.5000162124633789 0.4999971389770508 L 0.5000162124633789 6.286016941070557 L 6.822610378265381 6.286016941070557 L 6.902451515197754 0.4999971389770508 L 0.5000162124633789 0.4999971389770508 M 1.621246337890625e-05 -2.86102294921875e-06 L 7.409396171569824 -2.86102294921875e-06 L 7.315756320953369 6.786016941070557 L 1.621246337890625e-05 6.786016941070557 L 1.621246337890625e-05 -2.86102294921875e-06 Z"/></g><g class="i" transform="translate(978.098 532.371)"><path class="k" d="M 7.069178104400635 6.536016941070557 L 0.2500161826610565 6.536016941070557 L 0.2500161826610565 0.2499970346689224 L 7.155919075012207 0.2499970346689224 L 7.069178104400635 6.536016941070557 Z"/><path class="m" d="M 0.5000162124633789 0.4999971389770508 L 0.5000162124633789 6.286016941070557 L 6.822610378265381 6.286016941070557 L 6.902451515197754 0.4999971389770508 L 0.5000162124633789 0.4999971389770508 M 1.621246337890625e-05 -2.86102294921875e-06 L 7.409396171569824 -2.86102294921875e-06 L 7.315756320953369 6.786016941070557 L 1.621246337890625e-05 6.786016941070557 L 1.621246337890625e-05 -2.86102294921875e-06 Z"/></g></g><g transform="translate(-277 -42)"><path class="e" d="M0,0H106.209V156.888L0,69.525Z" transform="translate(694.06 421.889)"/><path class="f" d="M240.473,0H0V59.7H237.434Z" transform="translate(800.269 519.08)"/><path class="g" d="M240.473,0H0V3.09L240.473,3.4Z" transform="translate(800.269 519.08)"/><path class="g" d="M0,0H106.209V101.45L0,4.581Z" transform="translate(694.06 421.026)"/><path class="h" d="M-106.456,143.251H133.7l106.525,98.055H.069Z" transform="translate(800.515 277.774)"/><g transform="translate(815.331 532.371)"><g class="i" transform="translate(0 0)"><path class="k" d="M 7.069178104400635 6.536016941070557 L 0.2500161826610565 6.536016941070557 L 0.2500161826610565 0.2499970346689224 L 7.155919075012207 0.2499970346689224 L 7.069178104400635 6.536016941070557 Z"/><path class="m" d="M 0.5000162124633789 0.4999971389770508 L 0.5000162124633789 6.286016941070557 L 6.822610378265381 6.286016941070557 L 6.902451515197754 0.4999971389770508 L 0.5000162124633789 0.4999971389770508 M 1.621246337890625e-05 -2.86102294921875e-06 L 7.409396171569824 -2.86102294921875e-06 L 7.315756320953369 6.786016941070557 L 1.621246337890625e-05 6.786016941070557 L 1.621246337890625e-05 -2.86102294921875e-06 Z"/></g><g class="i" transform="translate(9.747 0)"><path class="k" d="M 7.069178104400635 6.536016941070557 L 0.2500161826610565 6.536016941070557 L 0.2500161826610565 0.2499970346689224 L 7.155919075012207 0.2499970346689224 L 7.069178104400635 6.536016941070557 Z"/><path class="m" d="M 0.5000162124633789 0.4999971389770508 L 0.5000162124633789 6.286016941070557 L 6.822610378265381 6.286016941070557 L 6.902451515197754 0.4999971389770508 L 0.5000162124633789 0.4999971389770508 M 1.621246337890625e-05 -2.86102294921875e-06 L 7.409396171569824 -2.86102294921875e-06 L 7.315756320953369 6.786016941070557 L 1.621246337890625e-05 6.786016941070557 L 1.621246337890625e-05 -2.86102294921875e-06 Z"/></g><g class="i" transform="translate(19.493 0)"><path class="k" d="M 7.069178104400635 6.536016941070557 L 0.2500161826610565 6.536016941070557 L 0.2500161826610565 0.2499970346689224 L 7.155919075012207 0.2499970346689224 L 7.069178104400635 6.536016941070557 Z"/><path class="m" d="M 0.5000162124633789 0.4999971389770508 L 0.5000162124633789 6.286016941070557 L 6.822610378265381 6.286016941070557 L 6.902451515197754 0.4999971389770508 L 0.5000162124633789 0.4999971389770508 M 1.621246337890625e-05 -2.86102294921875e-06 L 7.409396171569824 -2.86102294921875e-06 L 7.315756320953369 6.786016941070557 L 1.621246337890625e-05 6.786016941070557 L 1.621246337890625e-05 -2.86102294921875e-06 Z"/></g><g class="i" transform="translate(29.24 0)"><path class="k" d="M 7.069178104400635 6.536016941070557 L 0.2500161826610565 6.536016941070557 L 0.2500161826610565 0.2499970346689224 L 7.155919075012207 0.2499970346689224 L 7.069178104400635 6.536016941070557 Z"/><path class="m" d="M 0.5000162124633789 0.4999971389770508 L 0.5000162124633789 6.286016941070557 L 6.822610378265381 6.286016941070557 L 6.902451515197754 0.4999971389770508 L 0.5000162124633789 0.4999971389770508 M 1.621246337890625e-05 -2.86102294921875e-06 L 7.409396171569824 -2.86102294921875e-06 L 7.315756320953369 6.786016941070557 L 1.621246337890625e-05 6.786016941070557 L 1.621246337890625e-05 -2.86102294921875e-06 Z"/></g><g class="i" transform="translate(38.986 0)"><path class="k" d="M 7.069178104400635 6.536016941070557 L 0.2500161826610565 6.536016941070557 L 0.2500161826610565 0.2499970346689224 L 7.155919075012207 0.2499970346689224 L 7.069178104400635 6.536016941070557 Z"/><path class="m" d="M 0.5000162124633789 0.4999971389770508 L 0.5000162124633789 6.286016941070557 L 6.822610378265381 6.286016941070557 L 6.902451515197754 0.4999971389770508 L 0.5000162124633789 0.4999971389770508 M 1.621246337890625e-05 -2.86102294921875e-06 L 7.409396171569824 -2.86102294921875e-06 L 7.315756320953369 6.786016941070557 L 1.621246337890625e-05 6.786016941070557 L 1.621246337890625e-05 -2.86102294921875e-06 Z"/></g><g class="i" transform="translate(48.733 0)"><path class="k" d="M 7.069178104400635 6.536016941070557 L 0.2500161826610565 6.536016941070557 L 0.2500161826610565 0.2499970346689224 L 7.155919075012207 0.2499970346689224 L 7.069178104400635 6.536016941070557 Z"/><path class="m" d="M 0.5000162124633789 0.4999971389770508 L 0.5000162124633789 6.286016941070557 L 6.822610378265381 6.286016941070557 L 6.902451515197754 0.4999971389770508 L 0.5000162124633789 0.4999971389770508 M 1.621246337890625e-05 -2.86102294921875e-06 L 7.409396171569824 -2.86102294921875e-06 L 7.315756320953369 6.786016941070557 L 1.621246337890625e-05 6.786016941070557 L 1.621246337890625e-05 -2.86102294921875e-06 Z"/></g><g class="i" transform="translate(9.747 8.86)"><path class="k" d="M 7.069178104400635 6.536016941070557 L 0.2500161826610565 6.536016941070557 L 0.2500161826610565 0.2499970346689224 L 7.155919075012207 0.2499970346689224 L 7.069178104400635 6.536016941070557 Z"/><path class="m" d="M 0.5000162124633789 0.4999971389770508 L 0.5000162124633789 6.286016941070557 L 6.822610378265381 6.286016941070557 L 6.902451515197754 0.4999971389770508 L 0.5000162124633789 0.4999971389770508 M 1.621246337890625e-05 -2.86102294921875e-06 L 7.409396171569824 -2.86102294921875e-06 L 7.315756320953369 6.786016941070557 L 1.621246337890625e-05 6.786016941070557 L 1.621246337890625e-05 -2.86102294921875e-06 Z"/></g><g class="i" transform="translate(19.493 8.86)"><path class="k" d="M 7.069178104400635 6.536016941070557 L 0.2500161826610565 6.536016941070557 L 0.2500161826610565 0.2499970346689224 L 7.155919075012207 0.2499970346689224 L 7.069178104400635 6.536016941070557 Z"/><path class="m" d="M 0.5000162124633789 0.4999971389770508 L 0.5000162124633789 6.286016941070557 L 6.822610378265381 6.286016941070557 L 6.902451515197754 0.4999971389770508 L 0.5000162124633789 0.4999971389770508 M 1.621246337890625e-05 -2.86102294921875e-06 L 7.409396171569824 -2.86102294921875e-06 L 7.315756320953369 6.786016941070557 L 1.621246337890625e-05 6.786016941070557 L 1.621246337890625e-05 -2.86102294921875e-06 Z"/></g><g class="i" transform="translate(29.24 8.86)"><path class="k" d="M 7.069178104400635 6.536016941070557 L 0.2500161826610565 6.536016941070557 L 0.2500161826610565 0.2499970346689224 L 7.155919075012207 0.2499970346689224 L 7.069178104400635 6.536016941070557 Z"/><path class="m" d="M 0.5000162124633789 0.4999971389770508 L 0.5000162124633789 6.286016941070557 L 6.822610378265381 6.286016941070557 L 6.902451515197754 0.4999971389770508 L 0.5000162124633789 0.4999971389770508 M 1.621246337890625e-05 -2.86102294921875e-06 L 7.409396171569824 -2.86102294921875e-06 L 7.315756320953369 6.786016941070557 L 1.621246337890625e-05 6.786016941070557 L 1.621246337890625e-05 -2.86102294921875e-06 Z"/></g><g class="i" transform="translate(38.986 8.86)"><path class="k" d="M 7.069178104400635 6.536016941070557 L 0.2500161826610565 6.536016941070557 L 0.2500161826610565 0.2499970346689224 L 7.155919075012207 0.2499970346689224 L 7.069178104400635 6.536016941070557 Z"/><path class="m" d="M 0.5000162124633789 0.4999971389770508 L 0.5000162124633789 6.286016941070557 L 6.822610378265381 6.286016941070557 L 6.902451515197754 0.4999971389770508 L 0.5000162124633789 0.4999971389770508 M 1.621246337890625e-05 -2.86102294921875e-06 L 7.409396171569824 -2.86102294921875e-06 L 7.315756320953369 6.786016941070557 L 1.621246337890625e-05 6.786016941070557 L 1.621246337890625e-05 -2.86102294921875e-06 Z"/></g><g class="i" transform="translate(19.493 17.721)"><path class="k" d="M 7.069178104400635 6.536016941070557 L 0.2500161826610565 6.536016941070557 L 0.2500161826610565 0.2499970346689224 L 7.155919075012207 0.2499970346689224 L 7.069178104400635 6.536016941070557 Z"/><path class="m" d="M 0.5000162124633789 0.4999971389770508 L 0.5000162124633789 6.286016941070557 L 6.822610378265381 6.286016941070557 L 6.902451515197754 0.4999971389770508 L 0.5000162124633789 0.4999971389770508 M 1.621246337890625e-05 -2.86102294921875e-06 L 7.409396171569824 -2.86102294921875e-06 L 7.315756320953369 6.786016941070557 L 1.621246337890625e-05 6.786016941070557 L 1.621246337890625e-05 -2.86102294921875e-06 Z"/></g><g class="i" transform="translate(29.24 17.721)"><path class="k" d="M 7.069178104400635 6.536016941070557 L 0.2500161826610565 6.536016941070557 L 0.2500161826610565 0.2499970346689224 L 7.155919075012207 0.2499970346689224 L 7.069178104400635 6.536016941070557 Z"/><path class="m" d="M 0.5000162124633789 0.4999971389770508 L 0.5000162124633789 6.286016941070557 L 6.822610378265381 6.286016941070557 L 6.902451515197754 0.4999971389770508 L 0.5000162124633789 0.4999971389770508 M 1.621246337890625e-05 -2.86102294921875e-06 L 7.409396171569824 -2.86102294921875e-06 L 7.315756320953369 6.786016941070557 L 1.621246337890625e-05 6.786016941070557 L 1.621246337890625e-05 -2.86102294921875e-06 Z"/></g></g><g class="i" transform="translate(1017.084 532.371)"><path class="k" d="M 7.069178104400635 6.536016941070557 L 0.2500161826610565 6.536016941070557 L 0.2500161826610565 0.2499970346689224 L 7.155919075012207 0.2499970346689224 L 7.069178104400635 6.536016941070557 Z"/><path class="m" d="M 0.5000162124633789 0.4999971389770508 L 0.5000162124633789 6.286016941070557 L 6.822610378265381 6.286016941070557 L 6.902451515197754 0.4999971389770508 L 0.5000162124633789 0.4999971389770508 M 1.621246337890625e-05 -2.86102294921875e-06 L 7.409396171569824 -2.86102294921875e-06 L 7.315756320953369 6.786016941070557 L 1.621246337890625e-05 6.786016941070557 L 1.621246337890625e-05 -2.86102294921875e-06 Z"/></g><g class="i" transform="translate(978.098 532.371)"><path class="k" d="M 7.069178104400635 6.536016941070557 L 0.2500161826610565 6.536016941070557 L 0.2500161826610565 0.2499970346689224 L 7.155919075012207 0.2499970346689224 L 7.069178104400635 6.536016941070557 Z"/><path class="m" d="M 0.5000162124633789 0.4999971389770508 L 0.5000162124633789 6.286016941070557 L 6.822610378265381 6.286016941070557 L 6.902451515197754 0.4999971389770508 L 0.5000162124633789 0.4999971389770508 M 1.621246337890625e-05 -2.86102294921875e-06 L 7.409396171569824 -2.86102294921875e-06 L 7.315756320953369 6.786016941070557 L 1.621246337890625e-05 6.786016941070557 L 1.621246337890625e-05 -2.86102294921875e-06 Z"/></g></g><g transform="translate(3.55 -134)"><path class="e" d="M0,0H106.209V156.888L0,69.525Z" transform="translate(694.06 421.889)"/><path class="f" d="M240.473,0H0V59.7H237.434Z" transform="translate(800.269 519.08)"/><path class="g" d="M240.473,0H0V3.09L240.473,3.4Z" transform="translate(800.269 519.08)"/><path class="g" d="M0,0H106.209V101.45L0,4.581Z" transform="translate(694.06 421.026)"/><path class="j" d="M-106.456,143.251H133.7l106.525,98.055H.069Z" transform="translate(800.515 277.774)"/><g transform="translate(815.331 532.371)"><g class="i" transform="translate(0 0)"><path class="k" d="M 7.069178104400635 6.536016941070557 L 0.2500161826610565 6.536016941070557 L 0.2500161826610565 0.2499970346689224 L 7.155919075012207 0.2499970346689224 L 7.069178104400635 6.536016941070557 Z"/><path class="m" d="M 0.5000162124633789 0.4999971389770508 L 0.5000162124633789 6.286016941070557 L 6.822610378265381 6.286016941070557 L 6.902451515197754 0.4999971389770508 L 0.5000162124633789 0.4999971389770508 M 1.621246337890625e-05 -2.86102294921875e-06 L 7.409396171569824 -2.86102294921875e-06 L 7.315756320953369 6.786016941070557 L 1.621246337890625e-05 6.786016941070557 L 1.621246337890625e-05 -2.86102294921875e-06 Z"/></g><g class="i" transform="translate(9.747 0)"><path class="k" d="M 7.069178104400635 6.536016941070557 L 0.2500161826610565 6.536016941070557 L 0.2500161826610565 0.2499970346689224 L 7.155919075012207 0.2499970346689224 L 7.069178104400635 6.536016941070557 Z"/><path class="m" d="M 0.5000162124633789 0.4999971389770508 L 0.5000162124633789 6.286016941070557 L 6.822610378265381 6.286016941070557 L 6.902451515197754 0.4999971389770508 L 0.5000162124633789 0.4999971389770508 M 1.621246337890625e-05 -2.86102294921875e-06 L 7.409396171569824 -2.86102294921875e-06 L 7.315756320953369 6.786016941070557 L 1.621246337890625e-05 6.786016941070557 L 1.621246337890625e-05 -2.86102294921875e-06 Z"/></g><g class="i" transform="translate(19.493 0)"><path class="k" d="M 7.069178104400635 6.536016941070557 L 0.2500161826610565 6.536016941070557 L 0.2500161826610565 0.2499970346689224 L 7.155919075012207 0.2499970346689224 L 7.069178104400635 6.536016941070557 Z"/><path class="m" d="M 0.5000162124633789 0.4999971389770508 L 0.5000162124633789 6.286016941070557 L 6.822610378265381 6.286016941070557 L 6.902451515197754 0.4999971389770508 L 0.5000162124633789 0.4999971389770508 M 1.621246337890625e-05 -2.86102294921875e-06 L 7.409396171569824 -2.86102294921875e-06 L 7.315756320953369 6.786016941070557 L 1.621246337890625e-05 6.786016941070557 L 1.621246337890625e-05 -2.86102294921875e-06 Z"/></g><g class="i" transform="translate(29.24 0)"><path class="k" d="M 7.069178104400635 6.536016941070557 L 0.2500161826610565 6.536016941070557 L 0.2500161826610565 0.2499970346689224 L 7.155919075012207 0.2499970346689224 L 7.069178104400635 6.536016941070557 Z"/><path class="m" d="M 0.5000162124633789 0.4999971389770508 L 0.5000162124633789 6.286016941070557 L 6.822610378265381 6.286016941070557 L 6.902451515197754 0.4999971389770508 L 0.5000162124633789 0.4999971389770508 M 1.621246337890625e-05 -2.86102294921875e-06 L 7.409396171569824 -2.86102294921875e-06 L 7.315756320953369 6.786016941070557 L 1.621246337890625e-05 6.786016941070557 L 1.621246337890625e-05 -2.86102294921875e-06 Z"/></g><g class="i" transform="translate(38.986 0)"><path class="k" d="M 7.069178104400635 6.536016941070557 L 0.2500161826610565 6.536016941070557 L 0.2500161826610565 0.2499970346689224 L 7.155919075012207 0.2499970346689224 L 7.069178104400635 6.536016941070557 Z"/><path class="m" d="M 0.5000162124633789 0.4999971389770508 L 0.5000162124633789 6.286016941070557 L 6.822610378265381 6.286016941070557 L 6.902451515197754 0.4999971389770508 L 0.5000162124633789 0.4999971389770508 M 1.621246337890625e-05 -2.86102294921875e-06 L 7.409396171569824 -2.86102294921875e-06 L 7.315756320953369 6.786016941070557 L 1.621246337890625e-05 6.786016941070557 L 1.621246337890625e-05 -2.86102294921875e-06 Z"/></g><g class="i" transform="translate(48.733 0)"><path class="k" d="M 7.069178104400635 6.536016941070557 L 0.2500161826610565 6.536016941070557 L 0.2500161826610565 0.2499970346689224 L 7.155919075012207 0.2499970346689224 L 7.069178104400635 6.536016941070557 Z"/><path class="m" d="M 0.5000162124633789 0.4999971389770508 L 0.5000162124633789 6.286016941070557 L 6.822610378265381 6.286016941070557 L 6.902451515197754 0.4999971389770508 L 0.5000162124633789 0.4999971389770508 M 1.621246337890625e-05 -2.86102294921875e-06 L 7.409396171569824 -2.86102294921875e-06 L 7.315756320953369 6.786016941070557 L 1.621246337890625e-05 6.786016941070557 L 1.621246337890625e-05 -2.86102294921875e-06 Z"/></g><g class="i" transform="translate(9.747 8.86)"><path class="k" d="M 7.069178104400635 6.536016941070557 L 0.2500161826610565 6.536016941070557 L 0.2500161826610565 0.2499970346689224 L 7.155919075012207 0.2499970346689224 L 7.069178104400635 6.536016941070557 Z"/><path class="m" d="M 0.5000162124633789 0.4999971389770508 L 0.5000162124633789 6.286016941070557 L 6.822610378265381 6.286016941070557 L 6.902451515197754 0.4999971389770508 L 0.5000162124633789 0.4999971389770508 M 1.621246337890625e-05 -2.86102294921875e-06 L 7.409396171569824 -2.86102294921875e-06 L 7.315756320953369 6.786016941070557 L 1.621246337890625e-05 6.786016941070557 L 1.621246337890625e-05 -2.86102294921875e-06 Z"/></g><g class="i" transform="translate(19.493 8.86)"><path class="k" d="M 7.069178104400635 6.536016941070557 L 0.2500161826610565 6.536016941070557 L 0.2500161826610565 0.2499970346689224 L 7.155919075012207 0.2499970346689224 L 7.069178104400635 6.536016941070557 Z"/><path class="m" d="M 0.5000162124633789 0.4999971389770508 L 0.5000162124633789 6.286016941070557 L 6.822610378265381 6.286016941070557 L 6.902451515197754 0.4999971389770508 L 0.5000162124633789 0.4999971389770508 M 1.621246337890625e-05 -2.86102294921875e-06 L 7.409396171569824 -2.86102294921875e-06 L 7.315756320953369 6.786016941070557 L 1.621246337890625e-05 6.786016941070557 L 1.621246337890625e-05 -2.86102294921875e-06 Z"/></g><g class="i" transform="translate(29.24 8.86)"><path class="k" d="M 7.069178104400635 6.536016941070557 L 0.2500161826610565 6.536016941070557 L 0.2500161826610565 0.2499970346689224 L 7.155919075012207 0.2499970346689224 L 7.069178104400635 6.536016941070557 Z"/><path class="m" d="M 0.5000162124633789 0.4999971389770508 L 0.5000162124633789 6.286016941070557 L 6.822610378265381 6.286016941070557 L 6.902451515197754 0.4999971389770508 L 0.5000162124633789 0.4999971389770508 M 1.621246337890625e-05 -2.86102294921875e-06 L 7.409396171569824 -2.86102294921875e-06 L 7.315756320953369 6.786016941070557 L 1.621246337890625e-05 6.786016941070557 L 1.621246337890625e-05 -2.86102294921875e-06 Z"/></g><g class="i" transform="translate(38.986 8.86)"><path class="k" d="M 7.069178104400635 6.536016941070557 L 0.2500161826610565 6.536016941070557 L 0.2500161826610565 0.2499970346689224 L 7.155919075012207 0.2499970346689224 L 7.069178104400635 6.536016941070557 Z"/><path class="m" d="M 0.5000162124633789 0.4999971389770508 L 0.5000162124633789 6.286016941070557 L 6.822610378265381 6.286016941070557 L 6.902451515197754 0.4999971389770508 L 0.5000162124633789 0.4999971389770508 M 1.621246337890625e-05 -2.86102294921875e-06 L 7.409396171569824 -2.86102294921875e-06 L 7.315756320953369 6.786016941070557 L 1.621246337890625e-05 6.786016941070557 L 1.621246337890625e-05 -2.86102294921875e-06 Z"/></g><g class="i" transform="translate(19.493 17.721)"><path class="k" d="M 7.069178104400635 6.536016941070557 L 0.2500161826610565 6.536016941070557 L 0.2500161826610565 0.2499970346689224 L 7.155919075012207 0.2499970346689224 L 7.069178104400635 6.536016941070557 Z"/><path class="m" d="M 0.5000162124633789 0.4999971389770508 L 0.5000162124633789 6.286016941070557 L 6.822610378265381 6.286016941070557 L 6.902451515197754 0.4999971389770508 L 0.5000162124633789 0.4999971389770508 M 1.621246337890625e-05 -2.86102294921875e-06 L 7.409396171569824 -2.86102294921875e-06 L 7.315756320953369 6.786016941070557 L 1.621246337890625e-05 6.786016941070557 L 1.621246337890625e-05 -2.86102294921875e-06 Z"/></g><g class="i" transform="translate(29.24 17.721)"><path class="k" d="M 7.069178104400635 6.536016941070557 L 0.2500161826610565 6.536016941070557 L 0.2500161826610565 0.2499970346689224 L 7.155919075012207 0.2499970346689224 L 7.069178104400635 6.536016941070557 Z"/><path class="m" d="M 0.5000162124633789 0.4999971389770508 L 0.5000162124633789 6.286016941070557 L 6.822610378265381 6.286016941070557 L 6.902451515197754 0.4999971389770508 L 0.5000162124633789 0.4999971389770508 M 1.621246337890625e-05 -2.86102294921875e-06 L 7.409396171569824 -2.86102294921875e-06 L 7.315756320953369 6.786016941070557 L 1.621246337890625e-05 6.786016941070557 L 1.621246337890625e-05 -2.86102294921875e-06 Z"/></g></g><g class="i" transform="translate(1017.084 532.371)"><path class="k" d="M 7.069178104400635 6.536016941070557 L 0.2500161826610565 6.536016941070557 L 0.2500161826610565 0.2499970346689224 L 7.155919075012207 0.2499970346689224 L 7.069178104400635 6.536016941070557 Z"/><path class="m" d="M 0.5000162124633789 0.4999971389770508 L 0.5000162124633789 6.286016941070557 L 6.822610378265381 6.286016941070557 L 6.902451515197754 0.4999971389770508 L 0.5000162124633789 0.4999971389770508 M 1.621246337890625e-05 -2.86102294921875e-06 L 7.409396171569824 -2.86102294921875e-06 L 7.315756320953369 6.786016941070557 L 1.621246337890625e-05 6.786016941070557 L 1.621246337890625e-05 -2.86102294921875e-06 Z"/></g><g class="i" transform="translate(978.098 532.371)"><path class="k" d="M 7.069178104400635 6.536016941070557 L 0.2500161826610565 6.536016941070557 L 0.2500161826610565 0.2499970346689224 L 7.155919075012207 0.2499970346689224 L 7.069178104400635 6.536016941070557 Z"/><path class="m" d="M 0.5000162124633789 0.4999971389770508 L 0.5000162124633789 6.286016941070557 L 6.822610378265381 6.286016941070557 L 6.902451515197754 0.4999971389770508 L 0.5000162124633789 0.4999971389770508 M 1.621246337890625e-05 -2.86102294921875e-06 L 7.409396171569824 -2.86102294921875e-06 L 7.315756320953369 6.786016941070557 L 1.621246337890625e-05 6.786016941070557 L 1.621246337890625e-05 -2.86102294921875e-06 Z"/></g></g><g transform="translate(-277 -134)"><path class="e" d="M0,0H106.209V156.888L0,69.525Z" transform="translate(694.06 421.889)"/><path class="f" d="M240.473,0H0V59.7H237.434Z" transform="translate(800.269 519.08)"/><path class="g" d="M240.473,0H0V3.09L240.473,3.4Z" transform="translate(800.269 519.08)"/><path class="g" d="M0,0H106.209V101.45L0,4.581Z" transform="translate(694.06 421.026)"/><path class="j" d="M-106.456,143.251H133.7l106.525,98.055H.069Z" transform="translate(800.515 277.774)"/><g transform="translate(815.331 532.371)"><g class="i" transform="translate(0 0)"><path class="k" d="M 7.069178104400635 6.536016941070557 L 0.2500161826610565 6.536016941070557 L 0.2500161826610565 0.2499970346689224 L 7.155919075012207 0.2499970346689224 L 7.069178104400635 6.536016941070557 Z"/><path class="m" d="M 0.5000162124633789 0.4999971389770508 L 0.5000162124633789 6.286016941070557 L 6.822610378265381 6.286016941070557 L 6.902451515197754 0.4999971389770508 L 0.5000162124633789 0.4999971389770508 M 1.621246337890625e-05 -2.86102294921875e-06 L 7.409396171569824 -2.86102294921875e-06 L 7.315756320953369 6.786016941070557 L 1.621246337890625e-05 6.786016941070557 L 1.621246337890625e-05 -2.86102294921875e-06 Z"/></g><g class="i" transform="translate(9.747 0)"><path class="k" d="M 7.069178104400635 6.536016941070557 L 0.2500161826610565 6.536016941070557 L 0.2500161826610565 0.2499970346689224 L 7.155919075012207 0.2499970346689224 L 7.069178104400635 6.536016941070557 Z"/><path class="m" d="M 0.5000162124633789 0.4999971389770508 L 0.5000162124633789 6.286016941070557 L 6.822610378265381 6.286016941070557 L 6.902451515197754 0.4999971389770508 L 0.5000162124633789 0.4999971389770508 M 1.621246337890625e-05 -2.86102294921875e-06 L 7.409396171569824 -2.86102294921875e-06 L 7.315756320953369 6.786016941070557 L 1.621246337890625e-05 6.786016941070557 L 1.621246337890625e-05 -2.86102294921875e-06 Z"/></g><g class="i" transform="translate(19.493 0)"><path class="k" d="M 7.069178104400635 6.536016941070557 L 0.2500161826610565 6.536016941070557 L 0.2500161826610565 0.2499970346689224 L 7.155919075012207 0.2499970346689224 L 7.069178104400635 6.536016941070557 Z"/><path class="m" d="M 0.5000162124633789 0.4999971389770508 L 0.5000162124633789 6.286016941070557 L 6.822610378265381 6.286016941070557 L 6.902451515197754 0.4999971389770508 L 0.5000162124633789 0.4999971389770508 M 1.621246337890625e-05 -2.86102294921875e-06 L 7.409396171569824 -2.86102294921875e-06 L 7.315756320953369 6.786016941070557 L 1.621246337890625e-05 6.786016941070557 L 1.621246337890625e-05 -2.86102294921875e-06 Z"/></g><g class="i" transform="translate(29.24 0)"><path class="k" d="M 7.069178104400635 6.536016941070557 L 0.2500161826610565 6.536016941070557 L 0.2500161826610565 0.2499970346689224 L 7.155919075012207 0.2499970346689224 L 7.069178104400635 6.536016941070557 Z"/><path class="m" d="M 0.5000162124633789 0.4999971389770508 L 0.5000162124633789 6.286016941070557 L 6.822610378265381 6.286016941070557 L 6.902451515197754 0.4999971389770508 L 0.5000162124633789 0.4999971389770508 M 1.621246337890625e-05 -2.86102294921875e-06 L 7.409396171569824 -2.86102294921875e-06 L 7.315756320953369 6.786016941070557 L 1.621246337890625e-05 6.786016941070557 L 1.621246337890625e-05 -2.86102294921875e-06 Z"/></g><g class="i" transform="translate(38.986 0)"><path class="k" d="M 7.069178104400635 6.536016941070557 L 0.2500161826610565 6.536016941070557 L 0.2500161826610565 0.2499970346689224 L 7.155919075012207 0.2499970346689224 L 7.069178104400635 6.536016941070557 Z"/><path class="m" d="M 0.5000162124633789 0.4999971389770508 L 0.5000162124633789 6.286016941070557 L 6.822610378265381 6.286016941070557 L 6.902451515197754 0.4999971389770508 L 0.5000162124633789 0.4999971389770508 M 1.621246337890625e-05 -2.86102294921875e-06 L 7.409396171569824 -2.86102294921875e-06 L 7.315756320953369 6.786016941070557 L 1.621246337890625e-05 6.786016941070557 L 1.621246337890625e-05 -2.86102294921875e-06 Z"/></g><g class="i" transform="translate(48.733 0)"><path class="k" d="M 7.069178104400635 6.536016941070557 L 0.2500161826610565 6.536016941070557 L 0.2500161826610565 0.2499970346689224 L 7.155919075012207 0.2499970346689224 L 7.069178104400635 6.536016941070557 Z"/><path class="m" d="M 0.5000162124633789 0.4999971389770508 L 0.5000162124633789 6.286016941070557 L 6.822610378265381 6.286016941070557 L 6.902451515197754 0.4999971389770508 L 0.5000162124633789 0.4999971389770508 M 1.621246337890625e-05 -2.86102294921875e-06 L 7.409396171569824 -2.86102294921875e-06 L 7.315756320953369 6.786016941070557 L 1.621246337890625e-05 6.786016941070557 L 1.621246337890625e-05 -2.86102294921875e-06 Z"/></g><g class="i" transform="translate(9.747 8.86)"><path class="k" d="M 7.069178104400635 6.536016941070557 L 0.2500161826610565 6.536016941070557 L 0.2500161826610565 0.2499970346689224 L 7.155919075012207 0.2499970346689224 L 7.069178104400635 6.536016941070557 Z"/><path class="m" d="M 0.5000162124633789 0.4999971389770508 L 0.5000162124633789 6.286016941070557 L 6.822610378265381 6.286016941070557 L 6.902451515197754 0.4999971389770508 L 0.5000162124633789 0.4999971389770508 M 1.621246337890625e-05 -2.86102294921875e-06 L 7.409396171569824 -2.86102294921875e-06 L 7.315756320953369 6.786016941070557 L 1.621246337890625e-05 6.786016941070557 L 1.621246337890625e-05 -2.86102294921875e-06 Z"/></g><g class="i" transform="translate(19.493 8.86)"><path class="k" d="M 7.069178104400635 6.536016941070557 L 0.2500161826610565 6.536016941070557 L 0.2500161826610565 0.2499970346689224 L 7.155919075012207 0.2499970346689224 L 7.069178104400635 6.536016941070557 Z"/><path class="m" d="M 0.5000162124633789 0.4999971389770508 L 0.5000162124633789 6.286016941070557 L 6.822610378265381 6.286016941070557 L 6.902451515197754 0.4999971389770508 L 0.5000162124633789 0.4999971389770508 M 1.621246337890625e-05 -2.86102294921875e-06 L 7.409396171569824 -2.86102294921875e-06 L 7.315756320953369 6.786016941070557 L 1.621246337890625e-05 6.786016941070557 L 1.621246337890625e-05 -2.86102294921875e-06 Z"/></g><g class="i" transform="translate(29.24 8.86)"><path class="k" d="M 7.069178104400635 6.536016941070557 L 0.2500161826610565 6.536016941070557 L 0.2500161826610565 0.2499970346689224 L 7.155919075012207 0.2499970346689224 L 7.069178104400635 6.536016941070557 Z"/><path class="m" d="M 0.5000162124633789 0.4999971389770508 L 0.5000162124633789 6.286016941070557 L 6.822610378265381 6.286016941070557 L 6.902451515197754 0.4999971389770508 L 0.5000162124633789 0.4999971389770508 M 1.621246337890625e-05 -2.86102294921875e-06 L 7.409396171569824 -2.86102294921875e-06 L 7.315756320953369 6.786016941070557 L 1.621246337890625e-05 6.786016941070557 L 1.621246337890625e-05 -2.86102294921875e-06 Z"/></g><g class="i" transform="translate(38.986 8.86)"><path class="k" d="M 7.069178104400635 6.536016941070557 L 0.2500161826610565 6.536016941070557 L 0.2500161826610565 0.2499970346689224 L 7.155919075012207 0.2499970346689224 L 7.069178104400635 6.536016941070557 Z"/><path class="m" d="M 0.5000162124633789 0.4999971389770508 L 0.5000162124633789 6.286016941070557 L 6.822610378265381 6.286016941070557 L 6.902451515197754 0.4999971389770508 L 0.5000162124633789 0.4999971389770508 M 1.621246337890625e-05 -2.86102294921875e-06 L 7.409396171569824 -2.86102294921875e-06 L 7.315756320953369 6.786016941070557 L 1.621246337890625e-05 6.786016941070557 L 1.621246337890625e-05 -2.86102294921875e-06 Z"/></g><g class="i" transform="translate(19.493 17.721)"><path class="k" d="M 7.069178104400635 6.536016941070557 L 0.2500161826610565 6.536016941070557 L 0.2500161826610565 0.2499970346689224 L 7.155919075012207 0.2499970346689224 L 7.069178104400635 6.536016941070557 Z"/><path class="m" d="M 0.5000162124633789 0.4999971389770508 L 0.5000162124633789 6.286016941070557 L 6.822610378265381 6.286016941070557 L 6.902451515197754 0.4999971389770508 L 0.5000162124633789 0.4999971389770508 M 1.621246337890625e-05 -2.86102294921875e-06 L 7.409396171569824 -2.86102294921875e-06 L 7.315756320953369 6.786016941070557 L 1.621246337890625e-05 6.786016941070557 L 1.621246337890625e-05 -2.86102294921875e-06 Z"/></g><g class="i" transform="translate(29.24 17.721)"><path class="k" d="M 7.069178104400635 6.536016941070557 L 0.2500161826610565 6.536016941070557 L 0.2500161826610565 0.2499970346689224 L 7.155919075012207 0.2499970346689224 L 7.069178104400635 6.536016941070557 Z"/><path class="m" d="M 0.5000162124633789 0.4999971389770508 L 0.5000162124633789 6.286016941070557 L 6.822610378265381 6.286016941070557 L 6.902451515197754 0.4999971389770508 L 0.5000162124633789 0.4999971389770508 M 1.621246337890625e-05 -2.86102294921875e-06 L 7.409396171569824 -2.86102294921875e-06 L 7.315756320953369 6.786016941070557 L 1.621246337890625e-05 6.786016941070557 L 1.621246337890625e-05 -2.86102294921875e-06 Z"/></g></g><g class="i" transform="translate(1017.084 532.371)"><path class="k" d="M 7.069178104400635 6.536016941070557 L 0.2500161826610565 6.536016941070557 L 0.2500161826610565 0.2499970346689224 L 7.155919075012207 0.2499970346689224 L 7.069178104400635 6.536016941070557 Z"/><path class="m" d="M 0.5000162124633789 0.4999971389770508 L 0.5000162124633789 6.286016941070557 L 6.822610378265381 6.286016941070557 L 6.902451515197754 0.4999971389770508 L 0.5000162124633789 0.4999971389770508 M 1.621246337890625e-05 -2.86102294921875e-06 L 7.409396171569824 -2.86102294921875e-06 L 7.315756320953369 6.786016941070557 L 1.621246337890625e-05 6.786016941070557 L 1.621246337890625e-05 -2.86102294921875e-06 Z"/></g><g class="i" transform="translate(978.098 532.371)"><path class="k" d="M 7.069178104400635 6.536016941070557 L 0.2500161826610565 6.536016941070557 L 0.2500161826610565 0.2499970346689224 L 7.155919075012207 0.2499970346689224 L 7.069178104400635 6.536016941070557 Z"/><path class="m" d="M 0.5000162124633789 0.4999971389770508 L 0.5000162124633789 6.286016941070557 L 6.822610378265381 6.286016941070557 L 6.902451515197754 0.4999971389770508 L 0.5000162124633789 0.4999971389770508 M 1.621246337890625e-05 -2.86102294921875e-06 L 7.409396171569824 -2.86102294921875e-06 L 7.315756320953369 6.786016941070557 L 1.621246337890625e-05 6.786016941070557 L 1.621246337890625e-05 -2.86102294921875e-06 Z"/></g></g></g></svg>